2.2Hzlow3min_grf.mot
version=1
nRows=12
nColumns 19
inDegrees=yes
endheader
time	1_ground_force_vx	1_ground_force_vy	1_ground_force_vz	1_ground_force_px	1_ground_force_py	1_ground_force_pz	1_ground_torque_x	1_ground_torque_y	1_ground_torque_z	2_ground_force_vx	2_ground_force_vy	2_ground_force_vz	2_ground_force_px	2_ground_force_py	2_ground_force_pz	2_ground_torque_x	2_ground_torque_y	2_ground_torque_z
            3.751500	            0.046331	           -0.181043	            0.182537	           -0.233013	            0.005581	           -0.255695	           -0.007639	           -0.083245	            0.020421	            0.095653	           -0.551772	           -0.095867	           -0.232311	            0.006130	           -0.833667	           -0.243903	           -0.085956	           -0.000200
            3.752000	            0.092908	           -1.083346	            0.407838	           -0.233013	            0.005581	           -0.255695	           -0.054463	           -0.110794	           -0.015190	            0.046685	            0.001508	           -0.375445	           -0.232311	            0.006130	           -0.833667	           -0.243951	           -0.094736	           -0.188735
            3.752500	            0.229850	           -0.361470	            0.227165	           -0.233013	            0.005581	           -0.255695	           -0.065972	           -0.027388	           -0.046561	           -0.327408	           -0.184328	           -0.282086	           -0.232311	            0.006130	           -0.833667	           -0.225245	           -0.048145	            0.018777
            3.753000	           -0.182701	           -1.803282	            0.130293	           -0.233013	            0.005581	           -0.255695	           -0.060991	           -0.027902	            0.011075	           -0.140735	            0.000999	           -0.422293	           -0.232311	            0.006130	           -0.833667	           -0.150205	           -0.028699	           -0.056588
            3.753500	            0.045828	           -0.540592	           -0.048289	           -0.233013	            0.005581	           -0.255695	            0.058622	            0.009274	            0.001868	            0.143749	           -0.919230	           -0.284914	           -0.232311	            0.006130	           -0.833667	           -0.206527	           -0.038355	           -0.056598
            3.754000	           -0.045352	           -1.442527	            0.085642	           -0.233013	            0.005581	           -0.255695	            0.034656	           -0.037146	            0.035447	            0.095611	           -0.551437	           -0.189723	           -0.232311	            0.006130	           -0.833667	           -0.168854	           -0.066578	           -0.056715
            3.754500	            0.000668	           -0.541780	            0.226961	           -0.233013	            0.005581	           -0.255695	           -0.103339	            0.018556	           -0.018443	            0.234188	            0.001348	           -0.140884	           -0.232311	            0.006130	           -0.833667	           -0.168878	           -0.075560	           -0.188700
            3.755000	           -0.046136	            0.360916	           -0.090052	           -0.233013	            0.005581	           -0.255695	            0.003732	           -0.064808	            0.016543	           -0.091706	           -0.552783	           -0.001931	           -0.232311	            0.006130	           -0.833667	           -0.187605	           -0.076098	           -0.056741
            3.755500	           -0.045109	           -0.902320	            0.225529	           -0.233013	            0.005581	           -0.255695	           -0.084232	           -0.064814	            0.016807	            0.097626	           -1.104050	           -0.144767	           -0.232311	            0.006130	           -0.833667	           -0.187614	           -0.076031	           -0.075591
            3.756000	            0.093300	           -1.985067	            0.495685	           -0.233013	            0.005581	           -0.255695	           -0.095204	           -0.083310	            0.041455	            0.049988	           -0.919066	           -0.425658	           -0.232311	            0.006130	           -0.833667	           -0.150036	           -0.066779	            0.018678
            3.756500	           -0.091440	           -0.721277	            0.042992	           -0.233013	            0.005581	           -0.255695	            0.017181	           -0.018363	           -0.041601	            0.100161	           -1.839639	           -0.428963	           -0.232311	            0.006130	           -0.833667	           -0.150027	           -0.066846	            0.037528
            3.757000	            0.046559	           -0.181436	            0.274249	           -0.233013	            0.005581	           -0.255695	           -0.030345	            0.046161	            0.021032	            0.091583	            0.553788	           -0.279637	           -0.232311	            0.006130	           -0.833667	           -0.168661	           -0.095675	            0.150536
